<svg width="118" height="12" viewBox="0 0 118 12" fill="none" xmlns="http://www.w3.org/2000/svg">
<path d="M0 0.0343741C0.151843 0.61011 0.455087 1.13468 0.878224 1.55359C1.30136 1.97249 1.82895 2.27045 2.40619 2.4165H6.16328L6.35577 2.49212V11.9725H8.70009V2.50587L8.91321 2.43025H12.6737C13.2491 2.28027 13.7746 1.981 14.1971 1.5627C14.6196 1.1444 14.9242 0.62192 15.0799 0.0481237V0.0240619H0V0.0343741ZM82.0201 0.0206245H79.6826V12H90.3867C90.8938 11.8037 91.3451 11.4861 91.701 11.075C92.057 10.664 92.3068 10.1719 92.4285 9.64194H82.0132L82.0201 0.0206245ZM64.0321 2.37869C65.2764 2.03495 66.3214 1.0656 66.5723 0.0137496L53.4758 0.0343741V7.09825H64.1902V9.5835H55.7823C55.1413 9.74965 54.5429 10.0501 54.0268 10.4649C53.5106 10.8797 53.0885 11.3995 52.7883 11.9897H66.5001V4.74706H55.7892V2.37869H64.0321ZM103.964 11.9931H106.288V7.17388H114.737V11.9931H117.058V4.76769L103.964 4.75394V11.9931ZM29.3383 2.40619H38.2756C38.861 2.26534 39.3966 1.96649 39.8239 1.5422C40.2513 1.11791 40.5539 0.584462 40.6989 0L26.9149 0C27.0613 0.583787 27.3645 1.11648 27.7916 1.54055C28.2186 1.96461 28.7535 2.26394 29.3383 2.40619ZM29.3383 7.1395H38.2756C38.8607 6.99795 39.3959 6.69886 39.8231 6.27468C40.2503 5.85051 40.5532 5.31744 40.6989 4.73331H26.9149C27.062 5.31677 27.3654 5.84909 27.7924 6.27304C28.2193 6.697 28.7538 6.99655 29.3383 7.1395ZM29.3383 12H38.2756C38.8607 11.8584 39.3959 11.5594 39.8231 11.1352C40.2503 10.711 40.5532 10.1779 40.6989 9.59381H26.9149C27.0617 10.1774 27.3649 10.7099 27.792 11.1339C28.219 11.558 28.7536 11.8574 29.3383 12ZM106.03 2.41306H114.968C115.554 2.27242 116.09 1.97369 116.518 1.54942C116.946 1.12515 117.249 0.591598 117.394 0.00687482H103.607C103.753 0.590999 104.056 1.12407 104.483 1.54824C104.91 1.97242 105.445 2.27151 106.03 2.41306Z" fill="#0E0D0D"/>
</svg>
